<svg width="24" height="24" viewBox="0 0 24 24" fill="none" xmlns="http://www.w3.org/2000/svg">
<path d="M12 12C14.7614 12 17 9.76142 17 7C17 4.23858 14.7614 2 12 2C9.23858 2 7 4.23858 7 7C7 9.76142 9.23858 12 12 12Z" stroke="white" stroke-width="2"/>
<path d="M17 14H17.3517C18.8646 14 20.1408 15.1266 20.3285 16.6279L20.719 19.7519C20.8682 20.9456 19.9374 22 18.7344 22H5.26556C4.06257 22 3.1318 20.9456 3.28101 19.7519L3.67151 16.6279C3.85917 15.1266 5.13538 14 6.64835 14H7" stroke="white" stroke-width="2" stroke-linecap="round" stroke-linejoin="round"/>
</svg>
